<svg width="28" height="28" viewBox="0 0 28 28" fill="none" xmlns="http://www.w3.org/2000/svg">
<path d="M28 17.609C27.9725 16.0937 27.409 14.6372 26.4094 13.4981C25.4098 12.359 24.0389 11.6109 22.54 11.3868C22.4789 9.27561 21.5866 7.27398 20.0571 5.81739C18.5277 4.3608 16.485 3.56711 14.3733 3.609C12.6731 3.59161 11.0098 4.10535 9.61551 5.07856C8.22123 6.05177 7.16549 7.43591 6.59556 9.03789C4.78323 9.27093 3.11664 10.1525 1.90411 11.5194C0.691572 12.8864 0.0151563 14.6463 0 16.4734C0.0730119 18.5063 0.93952 20.4297 2.41378 21.8312C3.88804 23.2328 5.85272 24.001 7.88667 23.9712H8.57111H21.3422C21.4557 23.9874 21.5709 23.9874 21.6844 23.9712C23.3587 23.9429 24.9557 23.2621 26.1353 22.0737C27.315 20.8853 27.984 19.2834 28 17.609Z" fill="url(#paint0_linear_67_16016)"/>
<path d="M19.1798 10.2511C18.6919 9.44174 17.9749 8.79535 17.1195 8.39371C16.2641 7.99207 15.3088 7.85324 14.3744 7.99481C13.4401 8.13638 12.5687 8.55197 11.8707 9.18898C11.1727 9.82599 10.6793 10.6558 10.4531 11.5733C10.1759 12.7731 10.3591 14.0332 10.9664 15.1044L7.32645 18.7911C7.21169 18.9053 7.12062 19.041 7.05848 19.1905C6.99634 19.34 6.96436 19.5003 6.96436 19.6622C6.96436 19.8241 6.99634 19.9844 7.05848 20.1339C7.12062 20.2834 7.21169 20.4191 7.32645 20.5333C7.44048 20.648 7.57628 20.7387 7.72588 20.8002C7.87547 20.8616 8.03584 20.8925 8.19756 20.8911C8.35953 20.8943 8.52043 20.8642 8.67028 20.8027C8.82013 20.7411 8.95573 20.6494 9.06867 20.5333L12.6931 16.8622C13.0871 17.0912 13.5112 17.264 13.9531 17.3755C14.8709 17.5959 15.8333 17.5403 16.7196 17.2157C17.606 16.8911 18.3766 16.3119 18.9349 15.5509C19.4933 14.7898 19.8144 13.8808 19.8579 12.938C19.9015 11.9951 19.6656 11.0604 19.1798 10.2511ZM18.3398 13.5177C18.1625 14.2473 17.746 14.8964 17.1568 15.3616C16.5675 15.8269 15.8394 16.0813 15.0887 16.0844C14.8204 16.0865 14.5532 16.0499 14.2953 15.9755C13.9018 15.8869 13.531 15.7174 13.2064 15.4777C12.8642 15.2444 12.5687 14.9489 12.3353 14.6066C12.0717 14.2165 11.8926 13.7755 11.8096 13.3121C11.7265 12.8486 11.7414 12.3729 11.8531 11.9155C12.0217 11.183 12.4332 10.5292 13.0207 10.0603C13.6082 9.59146 14.337 9.33522 15.0887 9.3333C15.361 9.33366 15.6323 9.36498 15.8976 9.42663C16.76 9.65488 17.4977 10.2138 17.9509 10.9822C18.181 11.3578 18.3339 11.7754 18.4007 12.2108C18.4674 12.6462 18.4467 13.0905 18.3398 13.5177Z" fill="#F2F2F2"/>
<path d="M15.0734 16.0845C16.9205 16.0845 18.4179 14.5802 18.4179 12.7245C18.4179 10.8688 16.9205 9.3645 15.0734 9.3645C13.2264 9.3645 11.729 10.8688 11.729 12.7245C11.729 14.5802 13.2264 16.0845 15.0734 16.0845Z" fill="#83B9F9"/>
<defs>
<linearGradient id="paint0_linear_67_16016" x1="14" y1="0.560111" x2="14" y2="28.4823" gradientUnits="userSpaceOnUse">
<stop offset="0.18" stop-color="#5EA0EF"/>
<stop offset="1" stop-color="#0078D4"/>
</linearGradient>
</defs>
</svg>
